<?xml version="1.0" encoding="utf-8"?>
<!-- Generator: Adobe Illustrator 17.0.0, SVG Export Plug-In . SVG Version: 6.00 Build 0)  -->
<!DOCTYPE svg PUBLIC "-//W3C//DTD SVG 1.1//EN" "http://www.w3.org/Graphics/SVG/1.1/DTD/svg11.dtd">
<svg version="1.1" id="Layer_1" xmlns="http://www.w3.org/2000/svg" xmlns:xlink="http://www.w3.org/1999/xlink" x="0px" y="0px"
	 width="398.333px" height="90.333px" viewBox="0 0 398.333 90.333" enable-background="new 0 0 398.333 90.333"
	 xml:space="preserve">
<path fill="#F15A29" d="M361.563,53.261c-20.195-1.626-36.565-7.864-36.565-13.94c0-6.069,16.369-9.676,36.565-8.04
	c20.181,1.622,36.547,7.864,36.547,13.933S381.744,54.89,361.563,53.261"/>
<path fill="#662D91" d="M71.739,3.952l-7.504,13.322c-2.25-0.73-4.503-1.277-6.746-1.626c-2.253-0.349-4.464-0.532-6.644-0.532
	c-6.929,0-13.023,1.71-18.263,5.099c-5.251,3.403-8.735,7.86-10.449,13.365c-1.619,5.215-0.91,9.447,2.123,12.681
	c3.04,3.241,7.857,4.863,14.447,4.863c2.098,0,4.443-0.204,7.003-0.603c2.567-0.384,5.416-0.966,8.541-1.731l-1.153,13.227
	c-4.778,1.146-9.13,2.01-13.048,2.585c-3.928,0.571-7.465,0.85-10.593,0.85c-11.239,0-19.339-2.945-24.29-8.858
	C0.196,50.687-0.77,42.855,2.266,33.101c2.945-9.5,8.953-17.177,18.009-23.059C29.334,4.163,39.772,1.23,51.589,1.23
	c3.163,0,6.4,0.222,9.733,0.684C64.643,2.372,68.113,3.046,71.739,3.952"/>
<path fill="#662D91" d="M83.368,19.605h17.42L86.045,64.45h-17.42L83.368,19.605 M89.201,0.792h17.431l-3.946,12.702H85.259
	L89.201,0.792z"/>
<path fill="#662D91" d="M168.639,33.362L158.325,64.45h-17.533l8.326-25.023l0.159-0.483c0.843-2.719,0.952-4.768,0.328-6.129
	c-0.638-1.358-2.017-2.045-4.158-2.045c-1.432,0-3.086,0.331-4.972,0.991c-1.887,0.656-4.02,1.647-6.4,2.962L124.24,64.45h-17.53
	l14.74-44.845h17.329l-1.844,5.582c4.362-2.236,8.312-3.89,11.849-4.99c3.53-1.1,6.704-1.65,9.528-1.65
	c4.785,0,8.086,1.231,9.909,3.692c1.813,2.465,2.007,5.991,0.578,10.593L168.639,33.362"/>
<path fill="#662D91" d="M235.298,43.556h-35.154c-0.642,3.502-0.063,6.221,1.731,8.199c1.802,1.978,4.588,2.969,8.354,2.969
	c2.613,0,5.251-0.339,7.903-1.012c2.659-0.667,5.35-1.678,8.075-3.029l1.365,8.886c-5.374,2.126-9.997,3.66-13.852,4.588
	c-3.854,0.92-7.532,1.386-11.027,1.386c-8.118,0-13.873-2.116-17.258-6.355c-3.396-4.235-3.964-9.987-1.707-17.254
	c1.118-3.576,2.846-6.824,5.187-9.733c2.356-2.92,5.378-5.572,9.08-7.984c3.068-1.996,6.383-3.533,9.944-4.612
	c3.562-1.083,7.077-1.629,10.547-1.629c7.67,0,13.026,2.211,16.073,6.644c3.04,4.419,3.357,10.484,0.973,18.189L235.298,43.556
	 M223.788,35.167c0.649-2.726,0.36-4.87-0.85-6.446c-1.217-1.559-3.174-2.342-5.893-2.342c-3.022,0-5.755,0.751-8.195,2.264
	c-2.44,1.506-4.397,3.65-5.871,6.428L223.788,35.167z"/>
<path fill="#662D91" d="M269.134,3.116h16.916l-5.483,16.489h13.506l-3.699,11.256h-13.605l-5.448,16.57l-0.081,0.265
	c-0.532,1.7-0.508,2.969,0.067,3.798c0.571,0.839,1.686,1.252,3.354,1.252c0.652,0,1.545-0.092,2.712-0.286
	c1.16-0.19,2.528-0.458,4.101-0.808l-1.217,10.636c-3.223,0.998-6.175,1.739-8.841,2.218c-2.662,0.49-5.064,0.723-7.208,0.723
	c-5.06,0-8.555-1.202-10.494-3.6c-1.929-2.409-2.204-5.882-0.79-10.417l0.162-0.529l6.672-19.822h-8.1l3.692-11.256h8.149
	L269.134,3.116"/>
<path fill="#662D91" d="M336.258,18.068c8.756,0,14.941,2.116,18.531,6.351c3.586,4.232,4.21,10.131,1.865,17.688
	c-2.222,7.159-6.7,12.861-13.443,17.124c-6.739,4.271-14.677,6.397-23.817,6.397c-8.456,0-14.462-2.126-18.009-6.397
	c-3.548-4.263-4.179-10.085-1.88-17.469c2.253-7.271,6.693-13.041,13.309-17.3C319.441,20.198,327.248,18.068,336.258,18.068
	 M332.749,28.347c-3.597,0-6.746,1.185-9.43,3.54c-2.684,2.363-4.704,5.738-6.072,10.138c-1.308,4.214-1.396,7.493-0.247,9.817
	c1.146,2.331,3.396,3.498,6.76,3.498c3.357,0,6.407-1.238,9.147-3.689c2.729-2.468,4.768-5.85,6.108-10.156
	c1.301-4.193,1.396-7.43,0.289-9.719C338.197,29.493,336.011,28.347,332.749,28.347z"/>
<path fill="#FFFFFF" d="M397.968,46.843l-3.543-0.078l-39.277-0.226l-3.068-0.021l-39.273-0.222l-3.681,0.025l-3.678,0.021
	l-3.071,0.141l-2.447,0.145l-2.458,0.24l-1.844,0.243l-0.624,0.25l-0.614,0.296l0.614,0.31l0.61,0.264l1.837,0.265l2.465,0.222
	l2.44,0.212l3.068,0.176l3.685,0.067l3.682,0.081l39.266,0.226l3.079,0.018l39.27,0.229l1.969-0.017
	C397.146,48.938,397.819,48.067,397.968,46.843z"/>
<path fill="#FFFFFF" d="M374.251,30.862l-1.989-0.324l-7.113-0.219l-45.135,35.765c1.772-0.051,3.52-0.027,5.256,0.045l1.53-0.804
	l46.94-31.695l1.287-1.171l0.078-0.966L374.251,30.862z"/>
<path fill="#FFFFFF" d="M394.365,38.984l-3.918-0.23l-5.945-0.099h-71.846l-3.237,0.053l-3.244,0.046l-2.694,0.152l-2.158,0.166
	l-2.158,0.243l-1.626,0.261l-0.547,0.257l-0.536,0.3l0.536,0.31l0.547,0.254l1.626,0.254l2.158,0.211l2.158,0.194l2.694,0.159
	l3.244,0.046l3.237,0.057h71.846l5.945-0.102l5.402-0.353l0.579-0.083C395.575,40.521,394.8,39.89,394.365,38.984z"/>
<g enable-background="new    ">
	<path d="M5.456,82.077c0,0.357,0.028,0.682,0.085,0.975s0.164,0.539,0.321,0.738c0.157,0.2,0.368,0.357,0.632,0.472
		s0.596,0.171,0.996,0.171c0.471,0,0.896-0.153,1.274-0.46c0.378-0.307,0.567-0.782,0.567-1.425c0-0.342-0.046-0.639-0.139-0.889
		c-0.093-0.249-0.247-0.475-0.46-0.674c-0.214-0.2-0.497-0.382-0.846-0.547c-0.35-0.164-0.782-0.332-1.295-0.503
		c-0.686-0.229-1.278-0.479-1.778-0.75c-0.5-0.271-0.917-0.589-1.253-0.953c-0.335-0.363-0.582-0.785-0.739-1.264
		c-0.157-0.478-0.235-1.031-0.235-1.659c0-1.514,0.421-2.642,1.263-3.384s1.999-1.114,3.47-1.114c0.686,0,1.317,0.075,1.896,0.226
		c0.578,0.149,1.078,0.393,1.499,0.728c0.421,0.336,0.75,0.765,0.985,1.285c0.235,0.521,0.353,1.146,0.353,1.874v0.429H9.097
		c0-0.729-0.129-1.289-0.386-1.682s-0.686-0.589-1.285-0.589c-0.342,0-0.628,0.05-0.856,0.15c-0.229,0.1-0.411,0.231-0.546,0.396
		c-0.136,0.165-0.229,0.354-0.278,0.567c-0.05,0.215-0.075,0.437-0.075,0.664c0,0.472,0.1,0.867,0.3,1.188
		c0.2,0.321,0.628,0.618,1.285,0.89l2.377,1.027c0.585,0.257,1.063,0.525,1.435,0.804c0.371,0.278,0.667,0.578,0.889,0.899
		c0.221,0.321,0.375,0.675,0.46,1.06c0.085,0.386,0.128,0.814,0.128,1.285c0,1.614-0.468,2.788-1.403,3.523
		s-2.238,1.103-3.908,1.103c-1.742,0-2.988-0.378-3.737-1.135s-1.125-1.842-1.125-3.256v-0.621h3.084V82.077z"/>
	<path d="M13.851,78.029c0.157-0.757,0.414-1.389,0.771-1.896c0.356-0.507,0.824-0.892,1.403-1.156
		c0.578-0.264,1.288-0.396,2.131-0.396c0.885-0.014,1.62,0.104,2.206,0.354c0.585,0.25,1.049,0.632,1.392,1.146
		c0.342,0.515,0.585,1.149,0.728,1.906c0.143,0.757,0.214,1.643,0.214,2.656c0,0.984-0.079,1.855-0.235,2.612
		c-0.157,0.757-0.414,1.389-0.771,1.896s-0.825,0.882-1.403,1.124c-0.578,0.243-1.289,0.364-2.131,0.364
		c-0.886,0.015-1.621-0.096-2.206-0.332c-0.585-0.235-1.049-0.606-1.392-1.113s-0.585-1.143-0.728-1.906
		c-0.143-0.764-0.214-1.646-0.214-2.645C13.615,79.657,13.693,78.786,13.851,78.029z M16.614,82.269
		c0.028,0.5,0.096,0.929,0.203,1.285c0.107,0.357,0.268,0.636,0.482,0.836c0.214,0.199,0.5,0.3,0.857,0.3
		c0.6,0,1.014-0.314,1.242-0.942c0.228-0.629,0.343-1.663,0.343-3.105s-0.115-2.478-0.343-3.105
		c-0.229-0.629-0.643-0.942-1.242-0.942c-0.357,0-0.643,0.1-0.857,0.3c-0.214,0.2-0.375,0.479-0.482,0.835
		c-0.107,0.357-0.175,0.785-0.203,1.285c-0.029,0.5-0.043,1.042-0.043,1.628C16.571,81.227,16.585,81.77,16.614,82.269z"/>
	<path d="M27.343,71.111v15.292h-2.956V71.111H27.343z"/>
	<path d="M35.289,85.053c-0.314,0.571-0.721,0.979-1.221,1.221c-0.5,0.243-1.071,0.364-1.713,0.364
		c-0.942,0-1.667-0.246-2.174-0.738c-0.507-0.493-0.76-1.317-0.76-2.474V74.88h2.956v7.946c0,0.6,0.1,1.017,0.3,1.253
		c0.2,0.235,0.521,0.353,0.963,0.353c1.042,0,1.563-0.635,1.563-1.905V74.88h2.956v11.522h-2.827v-1.35H35.289z"/>
	<path d="M45.623,78.201c-0.036-0.271-0.1-0.518-0.193-0.739s-0.225-0.399-0.396-0.535s-0.4-0.204-0.686-0.204
		c-0.357,0-0.65,0.083-0.878,0.246c-0.229,0.165-0.4,0.407-0.514,0.729s-0.192,0.729-0.235,1.221
		c-0.043,0.493-0.064,1.074-0.064,1.746c0,0.714,0.021,1.324,0.064,1.831s0.121,0.924,0.235,1.253
		c0.114,0.328,0.275,0.567,0.482,0.717c0.207,0.15,0.475,0.226,0.803,0.226c0.5,0,0.864-0.215,1.092-0.643
		c0.228-0.429,0.343-1.114,0.343-2.057h2.827c0,1.514-0.339,2.667-1.018,3.459c-0.678,0.793-1.803,1.188-3.373,1.188
		c-0.743,0-1.389-0.089-1.938-0.268s-1.006-0.5-1.371-0.964c-0.364-0.464-0.639-1.085-0.824-1.863
		c-0.186-0.777-0.279-1.745-0.279-2.901c0-1.186,0.114-2.167,0.343-2.945s0.55-1.399,0.964-1.863s0.907-0.789,1.478-0.975
		c0.571-0.186,1.2-0.278,1.885-0.278c1.371,0,2.402,0.4,3.095,1.199c0.692,0.8,1.039,1.885,1.039,3.256h-2.827
		C45.676,78.75,45.658,78.471,45.623,78.201z"/>
	<path d="M53.107,70.94v2.527h-2.956V70.94H53.107z M53.107,74.88v11.522h-2.956V74.88H53.107z"/>
	<path d="M55.035,78.029c0.157-0.757,0.414-1.389,0.771-1.896c0.356-0.507,0.824-0.892,1.403-1.156
		c0.578-0.264,1.288-0.396,2.131-0.396c0.885-0.014,1.62,0.104,2.206,0.354c0.585,0.25,1.049,0.632,1.392,1.146
		c0.342,0.515,0.585,1.149,0.728,1.906c0.143,0.757,0.214,1.643,0.214,2.656c0,0.984-0.079,1.855-0.235,2.612
		c-0.157,0.757-0.414,1.389-0.771,1.896s-0.825,0.882-1.403,1.124c-0.578,0.243-1.289,0.364-2.131,0.364
		c-0.886,0.015-1.621-0.096-2.206-0.332c-0.585-0.235-1.049-0.606-1.392-1.113s-0.585-1.143-0.728-1.906
		c-0.143-0.764-0.214-1.646-0.214-2.645C54.799,79.657,54.877,78.786,55.035,78.029z M57.798,82.269
		c0.028,0.5,0.096,0.929,0.203,1.285c0.107,0.357,0.268,0.636,0.482,0.836c0.214,0.199,0.5,0.3,0.857,0.3
		c0.6,0,1.014-0.314,1.242-0.942c0.228-0.629,0.343-1.663,0.343-3.105s-0.115-2.478-0.343-3.105
		c-0.229-0.629-0.643-0.942-1.242-0.942c-0.357,0-0.643,0.1-0.857,0.3c-0.214,0.2-0.375,0.479-0.482,0.835
		c-0.107,0.357-0.175,0.785-0.203,1.285c-0.029,0.5-0.043,1.042-0.043,1.628C57.755,81.227,57.769,81.77,57.798,82.269z"/>
	<path d="M68.292,74.88v1.35h0.043c0.314-0.571,0.721-0.988,1.221-1.253c0.5-0.264,1.071-0.396,1.713-0.396
		c0.942,0,1.667,0.257,2.174,0.771c0.507,0.514,0.76,1.349,0.76,2.506v8.545h-2.956v-7.945c0-0.6-0.1-1.018-0.3-1.253
		c-0.2-0.236-0.521-0.354-0.964-0.354c-1.042,0-1.563,0.636-1.563,1.906v7.646h-2.956V74.88H68.292z"/>
	<path d="M78.7,82.012c0,0.343,0.025,0.675,0.075,0.996c0.05,0.321,0.132,0.607,0.246,0.856c0.114,0.25,0.264,0.45,0.45,0.6
		c0.186,0.15,0.414,0.226,0.686,0.226c0.5,0,0.864-0.179,1.092-0.536c0.228-0.356,0.385-0.899,0.471-1.627h2.656
		c-0.058,1.342-0.415,2.362-1.071,3.062c-0.657,0.699-1.692,1.049-3.105,1.049c-1.071,0-1.906-0.179-2.506-0.535
		s-1.042-0.828-1.328-1.413c-0.286-0.586-0.46-1.242-0.524-1.971c-0.064-0.729-0.097-1.456-0.097-2.185
		c0-0.771,0.054-1.514,0.161-2.228c0.107-0.714,0.321-1.349,0.643-1.906c0.321-0.557,0.782-0.999,1.381-1.327
		c0.6-0.329,1.399-0.493,2.399-0.493c0.856,0,1.56,0.14,2.109,0.418c0.549,0.278,0.981,0.671,1.296,1.178
		c0.314,0.507,0.528,1.121,0.643,1.842c0.114,0.722,0.171,1.524,0.171,2.409v0.664H78.7V82.012z M81.634,78.168
		c-0.042-0.336-0.118-0.621-0.225-0.857c-0.107-0.235-0.257-0.414-0.45-0.535c-0.193-0.121-0.439-0.182-0.739-0.182
		c-0.3,0-0.546,0.067-0.739,0.203s-0.346,0.314-0.46,0.535c-0.114,0.222-0.196,0.468-0.246,0.739
		c-0.05,0.271-0.075,0.543-0.075,0.813v0.45h3.02C81.706,78.893,81.677,78.503,81.634,78.168z"/>
	<path d="M88.252,83.019c0,0.5,0.132,0.903,0.396,1.21c0.264,0.308,0.646,0.461,1.146,0.461c0.457,0,0.821-0.114,1.092-0.343
		c0.271-0.229,0.407-0.571,0.407-1.028c0-0.371-0.107-0.653-0.321-0.846c-0.214-0.193-0.464-0.347-0.75-0.461l-2.078-0.749
		c-0.813-0.286-1.428-0.689-1.842-1.21c-0.414-0.521-0.621-1.189-0.621-2.003c0-0.471,0.079-0.917,0.236-1.339
		c0.157-0.421,0.407-0.788,0.75-1.103s0.782-0.564,1.317-0.75c0.536-0.186,1.182-0.278,1.938-0.278c1.342,0,2.334,0.286,2.977,0.856
		c0.642,0.571,0.963,1.379,0.963,2.421v0.471h-2.655c0-0.6-0.097-1.039-0.29-1.317c-0.192-0.278-0.532-0.417-1.017-0.417
		c-0.372,0-0.696,0.104-0.975,0.311s-0.417,0.518-0.417,0.932c0,0.285,0.089,0.542,0.268,0.771s0.518,0.422,1.018,0.578l1.777,0.6
		c0.928,0.314,1.585,0.726,1.97,1.231c0.386,0.508,0.579,1.196,0.579,2.067c0,0.614-0.107,1.146-0.321,1.596
		c-0.214,0.449-0.511,0.824-0.889,1.124c-0.379,0.3-0.829,0.514-1.35,0.643c-0.521,0.128-1.096,0.192-1.724,0.192
		c-0.828,0-1.517-0.078-2.066-0.235c-0.55-0.157-0.985-0.393-1.307-0.707C86.143,85.382,85.918,85,85.79,84.55
		c-0.129-0.45-0.193-0.953-0.193-1.51v-0.407h2.656V83.019z"/>
	<path d="M100.973,71.111h3.084v15.292h-3.084V71.111z"/>
	<path d="M111.746,71.111c0.785,0,1.446,0.133,1.981,0.396c0.536,0.265,0.967,0.61,1.296,1.039c0.328,0.428,0.564,0.917,0.707,1.467
		s0.214,1.11,0.214,1.682c0,0.785-0.118,1.471-0.354,2.056c-0.235,0.586-0.564,1.063-0.985,1.435
		c-0.421,0.372-0.932,0.65-1.531,0.836s-1.264,0.278-1.992,0.278h-1.649v6.104h-3.084V71.111H111.746z M110.803,78.029
		c0.614,0,1.11-0.186,1.489-0.557c0.378-0.371,0.567-0.949,0.567-1.735c0-0.771-0.164-1.355-0.493-1.756
		c-0.329-0.399-0.878-0.6-1.649-0.6h-1.285v4.647H110.803z"/>
	<path d="M122.497,78.136c0-0.671,0.107-1.231,0.321-1.682c0.214-0.449,0.503-0.813,0.867-1.092s0.792-0.479,1.285-0.6
		s1.017-0.183,1.574-0.183c0.885,0,1.599,0.086,2.142,0.257c0.542,0.172,0.964,0.415,1.264,0.729c0.3,0.314,0.503,0.689,0.61,1.124
		c0.107,0.437,0.161,0.91,0.161,1.425v6.061c0,0.543,0.024,0.964,0.075,1.264c0.05,0.3,0.146,0.621,0.289,0.964h-2.827
		c-0.1-0.186-0.175-0.382-0.225-0.589c-0.05-0.207-0.096-0.41-0.139-0.61h-0.043c-0.343,0.6-0.739,0.988-1.188,1.167
		s-1.032,0.268-1.746,0.268c-0.514,0-0.95-0.089-1.306-0.268c-0.357-0.179-0.643-0.425-0.857-0.739
		c-0.214-0.313-0.372-0.667-0.471-1.06c-0.1-0.393-0.15-0.782-0.15-1.167c0-0.543,0.057-1.01,0.171-1.403
		c0.114-0.393,0.289-0.728,0.525-1.007c0.235-0.278,0.535-0.51,0.899-0.695c0.364-0.186,0.803-0.35,1.317-0.493l1.671-0.449
		c0.442-0.114,0.75-0.271,0.921-0.472c0.171-0.199,0.257-0.492,0.257-0.878c0-0.442-0.104-0.789-0.311-1.039
		c-0.207-0.249-0.561-0.374-1.06-0.374c-0.457,0-0.8,0.136-1.028,0.406c-0.229,0.271-0.342,0.636-0.342,1.093v0.321h-2.656V78.136z
		 M127.251,81.016c-0.229,0.094-0.436,0.161-0.621,0.204c-0.6,0.128-1.028,0.343-1.285,0.643c-0.257,0.3-0.385,0.706-0.385,1.221
		c0,0.442,0.085,0.821,0.257,1.135c0.171,0.314,0.457,0.472,0.857,0.472c0.2,0,0.407-0.032,0.621-0.097
		c0.214-0.064,0.41-0.168,0.589-0.311c0.178-0.143,0.325-0.328,0.439-0.557s0.171-0.5,0.171-0.814v-2.27
		C127.693,80.799,127.479,80.923,127.251,81.016z"/>
	<path d="M141.021,71.111v15.292h-2.956V71.111H141.021z"/>
	<path d="M143.078,78.136c0-0.671,0.107-1.231,0.321-1.682c0.214-0.449,0.503-0.813,0.867-1.092s0.792-0.479,1.285-0.6
		s1.017-0.183,1.574-0.183c0.885,0,1.599,0.086,2.142,0.257c0.542,0.172,0.964,0.415,1.264,0.729c0.3,0.314,0.503,0.689,0.61,1.124
		c0.107,0.437,0.161,0.91,0.161,1.425v6.061c0,0.543,0.024,0.964,0.075,1.264c0.05,0.3,0.146,0.621,0.289,0.964h-2.827
		c-0.1-0.186-0.175-0.382-0.225-0.589c-0.05-0.207-0.096-0.41-0.139-0.61h-0.043c-0.343,0.6-0.739,0.988-1.188,1.167
		s-1.032,0.268-1.746,0.268c-0.514,0-0.95-0.089-1.306-0.268c-0.357-0.179-0.643-0.425-0.857-0.739
		c-0.214-0.313-0.372-0.667-0.471-1.06c-0.1-0.393-0.15-0.782-0.15-1.167c0-0.543,0.057-1.01,0.171-1.403
		c0.114-0.393,0.289-0.728,0.525-1.007c0.235-0.278,0.535-0.51,0.899-0.695c0.364-0.186,0.803-0.35,1.317-0.493l1.671-0.449
		c0.442-0.114,0.75-0.271,0.921-0.472c0.171-0.199,0.257-0.492,0.257-0.878c0-0.442-0.104-0.789-0.311-1.039
		c-0.207-0.249-0.561-0.374-1.06-0.374c-0.457,0-0.8,0.136-1.028,0.406c-0.229,0.271-0.342,0.636-0.342,1.093v0.321h-2.656V78.136z
		 M147.832,81.016c-0.229,0.094-0.436,0.161-0.621,0.204c-0.6,0.128-1.028,0.343-1.285,0.643c-0.257,0.3-0.385,0.706-0.385,1.221
		c0,0.442,0.085,0.821,0.257,1.135c0.171,0.314,0.457,0.472,0.857,0.472c0.2,0,0.407-0.032,0.621-0.097
		c0.214-0.064,0.41-0.168,0.589-0.311c0.178-0.143,0.325-0.328,0.439-0.557s0.171-0.5,0.171-0.814v-2.27
		C148.274,80.799,148.06,80.923,147.832,81.016z"/>
	<path d="M161.367,74.88v1.178h0.043c0.371-0.527,0.789-0.906,1.253-1.135c0.464-0.229,1.017-0.343,1.66-0.343
		c0.686,0,1.26,0.157,1.724,0.472c0.464,0.313,0.774,0.771,0.932,1.37h0.043c0.228-0.613,0.596-1.074,1.103-1.381
		c0.506-0.308,1.11-0.461,1.81-0.461c0.985,0,1.709,0.297,2.174,0.889c0.464,0.593,0.696,1.446,0.696,2.56v8.374h-2.955V78.35
		c0-0.485-0.089-0.856-0.268-1.113c-0.179-0.258-0.475-0.386-0.889-0.386c-0.471,0-0.846,0.157-1.125,0.471
		c-0.278,0.314-0.417,0.814-0.417,1.499v7.582h-2.956V78.35c0-0.485-0.089-0.856-0.268-1.113c-0.179-0.258-0.475-0.386-0.889-0.386
		c-0.471,0-0.846,0.157-1.125,0.471c-0.278,0.314-0.417,0.814-0.417,1.499v7.582h-2.956V74.88H161.367z"/>
	<path d="M177.301,82.012c0,0.343,0.025,0.675,0.075,0.996c0.05,0.321,0.132,0.607,0.246,0.856c0.114,0.25,0.264,0.45,0.45,0.6
		c0.186,0.15,0.414,0.226,0.686,0.226c0.5,0,0.864-0.179,1.092-0.536c0.228-0.356,0.385-0.899,0.471-1.627h2.656
		c-0.058,1.342-0.415,2.362-1.071,3.062c-0.657,0.699-1.692,1.049-3.105,1.049c-1.071,0-1.906-0.179-2.506-0.535
		s-1.042-0.828-1.328-1.413c-0.286-0.586-0.46-1.242-0.524-1.971c-0.064-0.729-0.097-1.456-0.097-2.185
		c0-0.771,0.054-1.514,0.161-2.228c0.107-0.714,0.321-1.349,0.643-1.906c0.321-0.557,0.782-0.999,1.381-1.327
		c0.6-0.329,1.399-0.493,2.399-0.493c0.856,0,1.56,0.14,2.109,0.418c0.549,0.278,0.981,0.671,1.296,1.178
		c0.314,0.507,0.528,1.121,0.643,1.842c0.114,0.722,0.171,1.524,0.171,2.409v0.664h-5.847V82.012z M180.235,78.168
		c-0.042-0.336-0.118-0.621-0.225-0.857c-0.107-0.235-0.257-0.414-0.45-0.535c-0.193-0.121-0.439-0.182-0.739-0.182
		c-0.3,0-0.546,0.067-0.739,0.203s-0.346,0.314-0.46,0.535c-0.114,0.222-0.196,0.468-0.246,0.739
		c-0.05,0.271-0.075,0.543-0.075,0.813v0.45h3.02C180.306,78.893,180.278,78.503,180.235,78.168z"/>
	<path d="M190.558,85.182c-0.329,0.543-0.696,0.921-1.103,1.135c-0.407,0.215-0.91,0.321-1.51,0.321
		c-1.214,0-2.106-0.464-2.677-1.392c-0.571-0.928-0.857-2.463-0.857-4.604s0.286-3.688,0.857-4.637
		c0.571-0.95,1.463-1.425,2.677-1.425c0.557,0,1.031,0.114,1.424,0.343s0.746,0.571,1.061,1.028h0.042v-4.841h2.956v15.292h-2.827
		v-1.221H190.558z M187.656,83.479c0.193,0.636,0.611,0.953,1.253,0.953c0.657,0,1.082-0.317,1.274-0.953
		c0.193-0.635,0.289-1.581,0.289-2.837c0-1.257-0.096-2.202-0.289-2.838s-0.618-0.953-1.274-0.953c-0.642,0-1.06,0.317-1.253,0.953
		c-0.192,0.636-0.289,1.581-0.289,2.838C187.367,81.898,187.463,82.844,187.656,83.479z"/>
	<path d="M198.461,70.94v2.527h-2.956V70.94H198.461z M198.461,74.88v11.522h-2.956V74.88H198.461z"/>
	<path d="M206.406,85.182c-0.328,0.543-0.696,0.921-1.103,1.135c-0.407,0.215-0.91,0.321-1.51,0.321
		c-1.214,0-2.106-0.464-2.678-1.392s-0.856-2.463-0.856-4.604s0.285-3.688,0.856-4.637c0.571-0.95,1.464-1.425,2.678-1.425
		c0.557,0,1.031,0.114,1.424,0.343s0.746,0.571,1.061,1.028h0.042v-4.841h2.956v15.292h-2.827v-1.221H206.406z M203.503,83.479
		c0.193,0.636,0.611,0.953,1.253,0.953c0.657,0,1.082-0.317,1.274-0.953c0.193-0.635,0.289-1.581,0.289-2.837
		c0-1.257-0.096-2.202-0.289-2.838c-0.192-0.636-0.617-0.953-1.274-0.953c-0.642,0-1.06,0.317-1.253,0.953
		c-0.192,0.636-0.289,1.581-0.289,2.838C203.214,81.898,203.311,82.844,203.503,83.479z"/>
	<path d="M211.225,78.136c0-0.671,0.106-1.231,0.321-1.682c0.214-0.449,0.503-0.813,0.867-1.092s0.792-0.479,1.285-0.6
		c0.492-0.121,1.017-0.183,1.574-0.183c0.885,0,1.599,0.086,2.142,0.257c0.542,0.172,0.964,0.415,1.264,0.729
		c0.3,0.314,0.503,0.689,0.61,1.124c0.106,0.437,0.16,0.91,0.16,1.425v6.061c0,0.543,0.024,0.964,0.075,1.264
		c0.05,0.3,0.146,0.621,0.289,0.964h-2.827c-0.1-0.186-0.175-0.382-0.225-0.589c-0.051-0.207-0.097-0.41-0.14-0.61h-0.043
		c-0.343,0.6-0.738,0.988-1.188,1.167c-0.449,0.179-1.031,0.268-1.745,0.268c-0.515,0-0.95-0.089-1.307-0.268
		c-0.357-0.179-0.643-0.425-0.856-0.739c-0.215-0.313-0.372-0.667-0.472-1.06s-0.149-0.782-0.149-1.167
		c0-0.543,0.057-1.01,0.171-1.403c0.114-0.393,0.289-0.728,0.525-1.007c0.235-0.278,0.535-0.51,0.899-0.695
		c0.363-0.186,0.803-0.35,1.316-0.493l1.671-0.449c0.442-0.114,0.75-0.271,0.921-0.472c0.171-0.199,0.257-0.492,0.257-0.878
		c0-0.442-0.104-0.789-0.311-1.039c-0.207-0.249-0.561-0.374-1.06-0.374c-0.457,0-0.8,0.136-1.028,0.406
		c-0.229,0.271-0.343,0.636-0.343,1.093v0.321h-2.655V78.136z M215.979,81.016c-0.229,0.094-0.436,0.161-0.621,0.204
		c-0.6,0.128-1.027,0.343-1.285,0.643c-0.257,0.3-0.385,0.706-0.385,1.221c0,0.442,0.085,0.821,0.257,1.135
		c0.171,0.314,0.457,0.472,0.856,0.472c0.2,0,0.407-0.032,0.621-0.097s0.41-0.168,0.589-0.311s0.325-0.328,0.439-0.557
		s0.171-0.5,0.171-0.814v-2.27C216.421,80.799,216.208,80.923,215.979,81.016z"/>
	<path d="M232.555,85.182c-0.328,0.543-0.696,0.921-1.103,1.135c-0.407,0.215-0.91,0.321-1.51,0.321
		c-1.214,0-2.106-0.464-2.678-1.392s-0.856-2.463-0.856-4.604s0.285-3.688,0.856-4.637c0.571-0.95,1.464-1.425,2.678-1.425
		c0.557,0,1.031,0.114,1.424,0.343s0.746,0.571,1.061,1.028h0.042v-4.841h2.956v15.292h-2.827v-1.221H232.555z M229.653,83.479
		c0.193,0.636,0.611,0.953,1.253,0.953c0.657,0,1.082-0.317,1.274-0.953c0.193-0.635,0.289-1.581,0.289-2.837
		c0-1.257-0.096-2.202-0.289-2.838c-0.192-0.636-0.617-0.953-1.274-0.953c-0.642,0-1.06,0.317-1.253,0.953
		c-0.192,0.636-0.289,1.581-0.289,2.838C229.364,81.898,229.46,82.844,229.653,83.479z"/>
	<path d="M239.922,82.012c0,0.343,0.025,0.675,0.075,0.996s0.132,0.607,0.246,0.856c0.114,0.25,0.265,0.45,0.45,0.6
		c0.186,0.15,0.414,0.226,0.686,0.226c0.499,0,0.863-0.179,1.092-0.536c0.229-0.356,0.386-0.899,0.472-1.627h2.655
		c-0.058,1.342-0.414,2.362-1.07,3.062c-0.657,0.699-1.692,1.049-3.105,1.049c-1.071,0-1.906-0.179-2.506-0.535
		s-1.043-0.828-1.328-1.413c-0.286-0.586-0.461-1.242-0.524-1.971c-0.064-0.729-0.097-1.456-0.097-2.185
		c0-0.771,0.054-1.514,0.16-2.228c0.107-0.714,0.321-1.349,0.643-1.906c0.321-0.557,0.782-0.999,1.382-1.327
		c0.6-0.329,1.399-0.493,2.398-0.493c0.856,0,1.56,0.14,2.109,0.418s0.981,0.671,1.296,1.178s0.528,1.121,0.643,1.842
		c0.114,0.722,0.172,1.524,0.172,2.409v0.664h-5.848V82.012z M242.857,78.168c-0.043-0.336-0.118-0.621-0.225-0.857
		c-0.107-0.235-0.258-0.414-0.45-0.535s-0.438-0.182-0.739-0.182c-0.3,0-0.546,0.067-0.738,0.203
		c-0.193,0.136-0.347,0.314-0.461,0.535c-0.114,0.222-0.196,0.468-0.246,0.739s-0.075,0.543-0.075,0.813v0.45h3.021
		C242.928,78.893,242.9,78.503,242.857,78.168z"/>
	<path d="M254.615,83.019c0,0.5,0.132,0.903,0.396,1.21c0.265,0.308,0.646,0.461,1.146,0.461c0.456,0,0.82-0.114,1.092-0.343
		s0.407-0.571,0.407-1.028c0-0.371-0.107-0.653-0.321-0.846c-0.215-0.193-0.464-0.347-0.75-0.461l-2.077-0.749
		c-0.813-0.286-1.428-0.689-1.842-1.21c-0.414-0.521-0.621-1.189-0.621-2.003c0-0.471,0.078-0.917,0.235-1.339
		c0.157-0.421,0.407-0.788,0.75-1.103s0.781-0.564,1.316-0.75c0.536-0.186,1.182-0.278,1.938-0.278c1.342,0,2.335,0.286,2.978,0.856
		c0.642,0.571,0.963,1.379,0.963,2.421v0.471h-2.655c0-0.6-0.097-1.039-0.289-1.317s-0.532-0.417-1.018-0.417
		c-0.371,0-0.696,0.104-0.975,0.311s-0.417,0.518-0.417,0.932c0,0.285,0.089,0.542,0.268,0.771s0.518,0.422,1.018,0.578l1.777,0.6
		c0.928,0.314,1.585,0.726,1.97,1.231c0.386,0.508,0.579,1.196,0.579,2.067c0,0.614-0.107,1.146-0.321,1.596
		c-0.215,0.449-0.511,0.824-0.889,1.124c-0.379,0.3-0.829,0.514-1.35,0.643c-0.521,0.128-1.096,0.192-1.725,0.192
		c-0.828,0-1.517-0.078-2.066-0.235s-0.985-0.393-1.307-0.707c-0.321-0.313-0.546-0.695-0.674-1.146
		c-0.129-0.45-0.193-0.953-0.193-1.51v-0.407h2.656V83.019z"/>
	<path d="M267.829,85.053c-0.314,0.571-0.722,0.979-1.221,1.221c-0.5,0.243-1.071,0.364-1.714,0.364
		c-0.942,0-1.667-0.246-2.174-0.738c-0.507-0.493-0.76-1.317-0.76-2.474V74.88h2.955v7.946c0,0.6,0.1,1.017,0.3,1.253
		c0.2,0.235,0.521,0.353,0.964,0.353c1.042,0,1.563-0.635,1.563-1.905V74.88h2.955v11.522h-2.827v-1.35H267.829z"/>
	<path d="M280.335,82.012c0,0.343,0.024,0.675,0.075,0.996c0.05,0.321,0.132,0.607,0.246,0.856c0.114,0.25,0.264,0.45,0.449,0.6
		c0.186,0.15,0.414,0.226,0.686,0.226c0.5,0,0.864-0.179,1.093-0.536c0.228-0.356,0.385-0.899,0.471-1.627h2.656
		c-0.058,1.342-0.415,2.362-1.071,3.062c-0.657,0.699-1.692,1.049-3.105,1.049c-1.07,0-1.906-0.179-2.506-0.535
		s-1.042-0.828-1.328-1.413c-0.285-0.586-0.46-1.242-0.524-1.971s-0.097-1.456-0.097-2.185c0-0.771,0.054-1.514,0.161-2.228
		s0.321-1.349,0.643-1.906c0.321-0.557,0.781-0.999,1.381-1.327c0.6-0.329,1.399-0.493,2.399-0.493c0.856,0,1.56,0.14,2.109,0.418
		c0.549,0.278,0.981,0.671,1.296,1.178c0.313,0.507,0.527,1.121,0.643,1.842c0.113,0.722,0.171,1.524,0.171,2.409v0.664h-5.847
		V82.012z M283.269,78.168c-0.042-0.336-0.117-0.621-0.225-0.857c-0.107-0.235-0.257-0.414-0.449-0.535
		c-0.193-0.121-0.439-0.182-0.739-0.182s-0.546,0.067-0.739,0.203c-0.192,0.136-0.346,0.314-0.46,0.535
		c-0.114,0.222-0.196,0.468-0.246,0.739c-0.051,0.271-0.075,0.543-0.075,0.813v0.45h3.02
		C283.34,78.893,283.312,78.503,283.269,78.168z"/>
	<path d="M290.551,74.88v1.178h0.043c0.371-0.527,0.788-0.906,1.253-1.135c0.464-0.229,1.017-0.343,1.659-0.343
		c0.686,0,1.261,0.157,1.725,0.472c0.464,0.313,0.774,0.771,0.932,1.37h0.043c0.228-0.613,0.596-1.074,1.103-1.381
		c0.507-0.308,1.11-0.461,1.81-0.461c0.985,0,1.71,0.297,2.174,0.889c0.464,0.593,0.696,1.446,0.696,2.56v8.374h-2.955V78.35
		c0-0.485-0.09-0.856-0.269-1.113c-0.179-0.258-0.475-0.386-0.889-0.386c-0.471,0-0.846,0.157-1.124,0.471
		c-0.278,0.314-0.418,0.814-0.418,1.499v7.582h-2.955V78.35c0-0.485-0.09-0.856-0.268-1.113c-0.179-0.258-0.476-0.386-0.889-0.386
		c-0.472,0-0.847,0.157-1.125,0.471c-0.278,0.314-0.417,0.814-0.417,1.499v7.582h-2.956V74.88H290.551z"/>
	<path d="M306.785,74.88v1.221h0.043c0.328-0.542,0.695-0.932,1.103-1.167s0.91-0.354,1.51-0.354c1.214,0,2.106,0.475,2.677,1.425
		c0.571,0.949,0.857,2.495,0.857,4.637s-0.286,3.677-0.857,4.604c-0.57,0.928-1.463,1.392-2.677,1.392
		c-0.557,0-1.031-0.104-1.424-0.311c-0.394-0.207-0.746-0.538-1.061-0.996h-0.043v4.776h-2.955V74.88H306.785z M307.202,83.479
		c0.193,0.636,0.618,0.953,1.274,0.953c0.643,0,1.061-0.317,1.253-0.953c0.193-0.635,0.289-1.581,0.289-2.837
		c0-1.257-0.096-2.202-0.289-2.838c-0.192-0.636-0.61-0.953-1.253-0.953c-0.656,0-1.081,0.317-1.274,0.953
		c-0.192,0.636-0.289,1.581-0.289,2.838C306.913,81.898,307.009,82.844,307.202,83.479z"/>
	<path d="M317.494,74.88v1.542h0.043c0.3-0.557,0.663-1.003,1.092-1.338c0.429-0.336,0.949-0.504,1.563-0.504
		c0.086,0,0.175,0.004,0.268,0.011c0.093,0.008,0.183,0.019,0.268,0.032v2.827c-0.157-0.014-0.311-0.024-0.46-0.032
		c-0.15-0.007-0.304-0.011-0.461-0.011c-0.257,0-0.514,0.036-0.771,0.107s-0.493,0.189-0.707,0.354s-0.386,0.378-0.514,0.642
		c-0.129,0.265-0.193,0.59-0.193,0.975v6.918h-2.955V74.88H317.494z"/>
	<path d="M324.325,82.012c0,0.343,0.024,0.675,0.074,0.996s0.132,0.607,0.247,0.856c0.113,0.25,0.264,0.45,0.449,0.6
		c0.186,0.15,0.414,0.226,0.686,0.226c0.5,0,0.863-0.179,1.092-0.536c0.229-0.356,0.386-0.899,0.472-1.627H330
		c-0.057,1.342-0.414,2.362-1.07,3.062c-0.657,0.699-1.692,1.049-3.105,1.049c-1.071,0-1.906-0.179-2.506-0.535
		s-1.043-0.828-1.328-1.413c-0.285-0.586-0.46-1.242-0.524-1.971s-0.097-1.456-0.097-2.185c0-0.771,0.054-1.514,0.161-2.228
		c0.106-0.714,0.321-1.349,0.643-1.906c0.321-0.557,0.781-0.999,1.381-1.327c0.6-0.329,1.399-0.493,2.398-0.493
		c0.857,0,1.561,0.14,2.11,0.418c0.549,0.278,0.981,0.671,1.295,1.178c0.314,0.507,0.528,1.121,0.643,1.842
		c0.114,0.722,0.172,1.524,0.172,2.409v0.664h-5.847V82.012z M327.258,78.168c-0.043-0.336-0.117-0.621-0.225-0.857
		c-0.107-0.235-0.257-0.414-0.45-0.535c-0.192-0.121-0.438-0.182-0.738-0.182s-0.546,0.067-0.739,0.203
		c-0.192,0.136-0.347,0.314-0.46,0.535c-0.115,0.222-0.197,0.468-0.247,0.739s-0.074,0.543-0.074,0.813v0.45h3.02
		C327.33,78.893,327.301,78.503,327.258,78.168z"/>
	<path d="M333.876,83.019c0,0.5,0.132,0.903,0.396,1.21c0.264,0.308,0.646,0.461,1.146,0.461c0.457,0,0.82-0.114,1.092-0.343
		s0.407-0.571,0.407-1.028c0-0.371-0.107-0.653-0.321-0.846c-0.214-0.193-0.464-0.347-0.75-0.461l-2.077-0.749
		c-0.813-0.286-1.428-0.689-1.842-1.21c-0.414-0.521-0.621-1.189-0.621-2.003c0-0.471,0.078-0.917,0.235-1.339
		c0.157-0.421,0.407-0.788,0.75-1.103s0.781-0.564,1.317-0.75c0.535-0.186,1.181-0.278,1.938-0.278c1.343,0,2.335,0.286,2.978,0.856
		c0.643,0.571,0.964,1.379,0.964,2.421v0.471h-2.656c0-0.6-0.096-1.039-0.289-1.317c-0.192-0.278-0.532-0.417-1.018-0.417
		c-0.371,0-0.695,0.104-0.974,0.311s-0.418,0.518-0.418,0.932c0,0.285,0.089,0.542,0.268,0.771s0.518,0.422,1.018,0.578l1.777,0.6
		c0.928,0.314,1.585,0.726,1.971,1.231c0.385,0.508,0.578,1.196,0.578,2.067c0,0.614-0.107,1.146-0.321,1.596
		c-0.214,0.449-0.511,0.824-0.889,1.124c-0.379,0.3-0.828,0.514-1.35,0.643c-0.521,0.128-1.096,0.192-1.724,0.192
		c-0.828,0-1.518-0.078-2.067-0.235s-0.984-0.393-1.306-0.707c-0.321-0.313-0.547-0.695-0.675-1.146
		c-0.129-0.45-0.193-0.953-0.193-1.51v-0.407h2.656V83.019z"/>
	<path d="M341.201,78.136c0-0.671,0.107-1.231,0.321-1.682c0.214-0.449,0.503-0.813,0.867-1.092s0.792-0.479,1.285-0.6
		c0.492-0.121,1.018-0.183,1.574-0.183c0.885,0,1.599,0.086,2.142,0.257c0.542,0.172,0.964,0.415,1.264,0.729
		c0.3,0.314,0.503,0.689,0.61,1.124c0.106,0.437,0.16,0.91,0.16,1.425v6.061c0,0.543,0.025,0.964,0.075,1.264
		s0.146,0.621,0.289,0.964h-2.827c-0.1-0.186-0.175-0.382-0.225-0.589s-0.097-0.41-0.14-0.61h-0.042
		c-0.343,0.6-0.739,0.988-1.189,1.167c-0.449,0.179-1.031,0.268-1.745,0.268c-0.514,0-0.949-0.089-1.307-0.268
		c-0.356-0.179-0.643-0.425-0.856-0.739c-0.214-0.313-0.371-0.667-0.471-1.06c-0.101-0.393-0.15-0.782-0.15-1.167
		c0-0.543,0.057-1.01,0.172-1.403c0.113-0.393,0.289-0.728,0.524-1.007c0.235-0.278,0.535-0.51,0.899-0.695s0.803-0.35,1.317-0.493
		l1.67-0.449c0.442-0.114,0.75-0.271,0.921-0.472c0.172-0.199,0.257-0.492,0.257-0.878c0-0.442-0.104-0.789-0.311-1.039
		c-0.207-0.249-0.561-0.374-1.06-0.374c-0.457,0-0.8,0.136-1.028,0.406c-0.229,0.271-0.343,0.636-0.343,1.093v0.321h-2.655V78.136z
		 M345.956,81.016c-0.229,0.094-0.437,0.161-0.621,0.204c-0.601,0.128-1.028,0.343-1.285,0.643s-0.386,0.706-0.386,1.221
		c0,0.442,0.086,0.821,0.257,1.135c0.172,0.314,0.457,0.472,0.856,0.472c0.2,0,0.407-0.032,0.621-0.097
		c0.215-0.064,0.41-0.168,0.589-0.311s0.325-0.328,0.439-0.557s0.171-0.5,0.171-0.814v-2.27
		C346.398,80.799,346.183,80.923,345.956,81.016z"/>
</g>
</svg>
